<svg xmlns="http://www.w3.org/2000/svg" viewBox="0 0 24 24" fill="currentColor">
  <path d="M12 0C5.372 0 0 5.372 0 12s5.372 12 12 12 12-5.372 12-12S18.628 0 12 0zm4.8 6.857c1.37 1.257 2.057 3.086 1.929 5.143-.129 2.057-1.114 4.114-2.7 5.657l-.043.043-.214-.471c-.343-.729-.771-1.629-.9-1.972-.043-.086-.043-.171 0-.257.643-1.243.771-2.4.343-3.343-.557-1.2-1.929-1.757-3.043-1.2-.171.086-.343.171-.471.3-.6.514-.857 1.243-.857 2.057 0 1.286.686 2.614 1.543 3.514-.3.343-.686.643-1.114.857-.6.3-1.243.471-1.886.471-.3 0-.6-.043-.857-.129 0 0-.3-.086-.343-.086-.171-.086-.343-.171-.514-.257-1.2-.771-1.886-2.1-1.886-3.6 0-1.2.429-2.357 1.243-3.257-.129.214-.214.471-.257.729a3.49 3.49 0 0 0-.086.771c0 1.114.514 2.143 1.329 2.786-.043-.3-.086-.557-.086-.857 0-1.157.471-2.186 1.286-2.914.943-.857 2.271-1.286 3.557-1.286.814 0 1.629.171 2.357.514l.471.214z"/>
</svg>
