<svg xmlns="http://www.w3.org/2000/svg" viewBox="0 0 24 24" fill="currentColor">
  <path d="M3.34 0A3.34 3.34 0 0 0 0 3.34v17.32A3.34 3.34 0 0 0 3.34 24h17.32A3.34 3.34 0 0 0 24 20.66V3.34A3.34 3.34 0 0 0 20.66 0zm8.327 3.274l.02.001h.025c.314.002.63.018.939.05l.042.004c.177.018.347.04.51.066l.038.007.037.006c.148.025.286.054.418.086l.026.007.025.006a7.254 7.254 0 0 1 .357.1l.02.007.02.006a6.72 6.72 0 0 1 .294.1l.016.006.015.007c.138.052.263.108.379.166l.01.005.01.006c.132.065.247.133.346.206l.004.003.005.003c.108.078.2.161.276.247l.003.003.003.004c.077.088.14.18.187.274l.001.003.002.003c.05.1.082.203.094.308v.004l.001.004c.014.107.01.218-.01.33l-.002.009-.001.008a2.01 2.01 0 0 1-.065.268l-.004.013-.003.012a3.15 3.15 0 0 1-.11.273l-.006.012-.006.012a3.945 3.945 0 0 1-.155.28l-.008.013-.008.013c-.06.097-.127.192-.2.284l-.01.012-.01.012a5.08 5.08 0 0 1-.243.274l-.012.013-.013.011c-.09.092-.186.181-.29.267l-.012.01-.013.011c-.102.084-.21.165-.323.24l-.013.009-.014.008a5.8 5.8 0 0 1-.353.198l-.014.007-.014.007a6.15 6.15 0 0 1-.377.164l-.015.006-.015.005a6.48 6.48 0 0 1-.394.123l-.015.004-.016.004a6.73 6.73 0 0 1-.403.083l-.016.003H12a6.952 6.952 0 0 1-.41.043l-.016.001H11.5a7.255 7.255 0 0 1-.414.003H10.96l-.014-.001a6.952 6.952 0 0 1-.41-.043h-.016l-.017-.003a6.73 6.73 0 0 1-.403-.083l-.015-.004-.016-.004a6.48 6.48 0 0 1-.394-.123l-.015-.005-.014-.006a6.15 6.15 0 0 1-.378-.164l-.014-.007-.013-.007a5.8 5.8 0 0 1-.354-.198l-.013-.008-.013-.009a5.476 5.476 0 0 1-.323-.24l-.013-.011-.012-.01a5.002 5.002 0 0 1-.29-.267l-.013-.011-.012-.013a5.08 5.08 0 0 1-.243-.274l-.01-.012-.01-.012a4.59 4.59 0 0 1-.199-.284l-.008-.013-.008-.013a3.945 3.945 0 0 1-.156-.28l-.005-.012-.006-.012a3.15 3.15 0 0 1-.11-.273l-.003-.012-.003-.013a2.01 2.01 0 0 1-.066-.268l-.001-.008-.002-.009a1.586 1.586 0 0 1-.01-.33v-.004l.001-.004c.012-.105.044-.208.094-.308l.002-.003.001-.003c.048-.095.11-.186.188-.274l.002-.004.003-.003c.077-.086.168-.169.276-.247l.005-.003.004-.003c.1-.073.214-.14.346-.206l.01-.006.01-.005c.116-.058.241-.114.38-.166l.014-.007.016-.006c.093-.035.19-.068.293-.1l.02-.006.02-.007a7.254 7.254 0 0 1 .358-.1l.025-.006.025-.007c.133-.032.27-.061.419-.086l.037-.006.037-.007c.164-.026.334-.048.511-.066l.041-.004c.31-.032.625-.048.94-.05zm0 1.23c-.26.002-.52.014-.77.04a5.96 5.96 0 0 0-.673.11c-.21.048-.402.106-.573.173a2.77 2.77 0 0 0-.434.217c-.12.079-.218.162-.29.248-.07.081-.115.164-.134.246-.018.082-.01.165.025.247.036.083.1.164.19.242.09.077.205.15.343.215.14.066.3.124.474.172.176.048.367.086.57.114.204.028.42.046.64.053.221.007.447.007.672 0 .225-.007.44-.025.644-.053.204-.028.394-.066.57-.114.175-.048.335-.106.474-.172.14-.065.253-.138.343-.215.09-.078.154-.16.19-.242.036-.082.043-.165.025-.247-.019-.082-.064-.165-.133-.246-.073-.086-.171-.169-.29-.248a2.77 2.77 0 0 0-.435-.217 4.4 4.4 0 0 0-.573-.173 5.96 5.96 0 0 0-.673-.11 8.18 8.18 0 0 0-.77-.04zm-6.09 3.242v13.508h11.914v-2.46H8.34v-3.09h7.98V13.25H8.34V9.207h9.143v-2.46z"/>
</svg>
