<svg fill="currentColor" role="img" viewBox="0 0 24 24" xmlns="http://www.w3.org/2000/svg"><title>Epic Games</title><path d="M3.537 0C2.165 0 1.66.506 1.66 1.879V18.44a4.262 4.262 0 00.02.433c.031.3.037.59.316.92.027.033.311.245.311.245.153.075.258.13.43.2l8.335 3.491c.433.199.614.276.928.27h.002c.314.006.495-.071.928-.27l8.335-3.492c.172-.07.277-.124.43-.2 0 0 .284-.211.311-.243.28-.33.285-.621.316-.92a4.261 4.261 0 00.02-.434V1.879c0-1.373-.506-1.88-1.878-1.88zm13.366 3.11h.68c1.138 0 1.688.553 1.688 1.696v1.88h-1.374v-1.8c0-.369-.17-.54-.523-.54h-.235c-.367 0-.537.17-.537.539v5.81c0 .369.17.54.537.54h.262c.353 0 .523-.171.523-.54V8.619h1.373v2.143c0 1.144-.562 1.71-1.7 1.71h-.694c-1.138 0-1.7-.566-1.7-1.71V4.82c0-1.144.562-1.709 1.7-1.709zm-12.186.08h3.114v1.274H6.117v2.603h1.648v1.275H6.117v2.774h1.74v1.275h-3.14zm3.816 0h2.198c1.138 0 1.7.564 1.7 1.708v2.445c0 1.144-.562 1.71-1.7 1.71h-.799v3.338h-1.4zm4.53 0h1.4v9.201h-1.4zm-3.13 1.235v3.392h.575c.354 0 .523-.171.523-.54V4.965c0-.368-.17-.54-.523-.54z"/></svg>
