<svg xmlns="http://www.w3.org/2000/svg" viewBox="0 0 24 24" fill="currentColor">
  <path d="M12 0C5.373 0 0 5.373 0 12s5.373 12 12 12 12-5.373 12-12S18.627 0 12 0zm0 2.182c5.42 0 9.818 4.398 9.818 9.818 0 5.42-4.398 9.818-9.818 9.818C6.58 21.818 2.182 17.42 2.182 12 2.182 6.58 6.58 2.182 12 2.182zM8.727 7.636C6.57 7.636 4.91 9.296 4.91 11.455v1.09C4.91 14.704 6.57 16.364 8.727 16.364H9.818V14.18H8.727c-.6 0-1.09-.49-1.09-1.09v-1.091c0-.6.49-1.091 1.09-1.091h2.182V8.727H8.727zm5.455 0v8.728h2.182v-3.273H17.454V11.91h-1.09V9.727H17.454V7.636h-3.272zm-2.91 5.455H9.818v2.182h1.454v-2.182z"/>
</svg>
