<svg xmlns="http://www.w3.org/2000/svg" viewBox="0 0 24 24" fill="currentColor">
  <path d="M12 0C5.374 0 0 5.374 0 12s5.374 12 12 12 12-5.374 12-12S18.626 0 12 0zm-1.453 3.02c.392-.021.781.051 1.143.213.505.23.965.613 1.47 1.042.47.404.98.853 1.57 1.2.344.201.718.326 1.115.326.353 0 .697-.1 1.004-.261-.88-1.01-2.075-1.737-3.416-2.063A5.93 5.93 0 0 0 10.547 3.02zm3.027.042a5.993 5.993 0 0 0-1.12-.042 5.96 5.96 0 0 1 1.12.042zm-6.21 1.12c-.353.356-.673.733-.96 1.13.307.16.651.261 1.004.261.397 0 .77-.125 1.115-.326.59-.347 1.1-.796 1.57-1.2.505-.429.965-.813 1.47-1.042a3.044 3.044 0 0 1 1.143-.213 5.96 5.96 0 0 0-2.986.777c-.455.274-.858.612-1.356.613zm1.76.718C8.025 6.188 6.49 8.232 6.49 10.643c0 1.24.37 2.399 1.004 3.375.557-.557 1.13-1.133 1.683-1.647.47-.438.944-.852 1.465-1.13.522-.279 1.107-.443 1.748-.443v-2.07c-.883 0-1.826-.277-2.676-.867-.496-.349-.947-.775-1.59-1.96zm5.762 0c-.643 1.185-1.094 1.611-1.59 1.96-.85.59-1.793.867-2.676.867v2.07c.641 0 1.226.164 1.748.443.521.278.995.692 1.465 1.13.553.514 1.126 1.09 1.683 1.647.634-.976 1.004-2.135 1.004-3.375 0-2.41-1.535-4.455-3.634-5.742zm-4.83 6.516c-.448.193-.852.514-1.265.893-.591.548-1.185 1.197-1.81 1.862A6.01 6.01 0 0 0 12.001 18a6.01 6.01 0 0 0 4.02-1.829c-.625-.665-1.219-1.314-1.81-1.862-.413-.379-.817-.7-1.265-.893-.448-.193-.942-.277-1.445-.277-.503 0-.997.084-1.445.277z"/>
</svg>
