<?xml version="1.0" encoding="UTF-8" standalone="no"?>
<!DOCTYPE svg PUBLIC "-//W3C//DTD SVG 1.1//EN" "http://www.w3.org/Graphics/SVG/1.1/DTD/svg11.dtd">
<svg xmlns="http://www.w3.org/2000/svg" version="1.1" viewBox="0.00 0.00 1254.00 1254.00">
<path fill="#ffffff" d="
  M 709.02 311.50
  Q 708.75 313.54 706.41 315.11
  Q 705.38 315.81 690.03 325.05
  Q 616.22 369.51 483.34 450.05
  Q 473.09 456.26 468.80 460.37
  Q 454.08 474.47 449.76 494.41
  Q 448.32 501.08 448.34 514.69
  Q 448.39 556.27 448.37 659.50
  Q 448.37 661.80 449.35 666.96
  C 452.43 683.33 461.78 697.43 475.18 706.98
  C 479.48 710.05 483.63 712.13 489.84 715.90
  Q 521.87 735.30 585.70 773.28
  Q 593.70 778.04 600.65 773.44
  Q 605.18 770.43 605.19 764.25
  Q 605.28 689.22 605.23 616.52
  Q 605.23 611.17 604.59 609.47
  C 601.87 602.24 596.96 601.22 589.27 601.28
  Q 571.66 601.41 511.81 601.28
  C 506.08 601.26 504.67 593.77 508.99 590.72
  Q 556.50 557.19 573.01 545.30
  Q 577.91 541.76 582.11 540.10
  Q 587.92 537.81 592.96 537.78
  Q 628.77 537.60 678.72 537.72
  A 3.06 2.33 43.3 0 1 679.29 537.78
  Q 686.46 539.35 688.27 546.04
  A 4.74 4.49 -54.1 0 1 688.43 547.25
  Q 688.42 568.93 688.43 597.21
  Q 688.43 606.35 689.70 608.55
  C 692.64 613.68 696.88 614.43 703.11 614.42
  Q 765.42 614.32 792.07 614.44
  Q 799.45 614.48 801.80 613.01
  Q 805.39 610.78 807.02 607.10
  Q 807.82 605.29 807.82 599.31
  Q 807.84 407.97 807.79 396.26
  Q 807.73 381.14 807.79 378.79
  Q 807.90 374.11 809.10 372.88
  Q 811.06 370.88 814.66 371.74
  A 2.14 2.11 67.3 0 1 815.28 372.00
  Q 850.12 394.17 879.83 412.51
  Q 886.92 416.89 889.84 420.10
  Q 898.21 429.31 901.33 441.17
  Q 902.82 446.79 902.81 460.99
  Q 902.76 600.79 902.75 709.70
  Q 902.75 729.48 889.34 743.44
  Q 885.63 747.31 877.25 752.36
  Q 851.64 767.81 815.50 790.76
  A 3.63 3.63 0.0 0 1 814.38 791.23
  Q 810.38 792.17 808.58 789.32
  Q 807.74 787.99 807.75 782.99
  Q 807.84 747.86 807.83 689.22
  Q 807.83 683.21 805.07 679.70
  Q 801.66 675.38 796.19 675.40
  Q 754.39 675.50 707.34 675.32
  C 698.38 675.29 693.03 675.36 689.31 682.70
  Q 688.37 684.56 688.38 690.92
  Q 688.47 758.19 688.39 853.81
  Q 688.39 856.19 685.58 859.49
  A 2.44 2.40 -84.7 0 1 684.95 860.02
  Q 674.39 866.24 657.23 876.71
  C 654.77 878.21 649.62 880.16 646.12 881.06
  Q 630.08 885.19 614.57 880.58
  Q 609.24 879.00 599.75 873.46
  Q 483.52 805.61 399.16 755.80
  Q 385.60 747.80 381.37 743.76
  C 371.31 734.18 364.06 721.89 361.23 707.89
  Q 360.05 702.03 360.08 689.57
  Q 360.18 639.69 360.09 475.79
  Q 360.08 461.49 361.39 455.31
  Q 366.04 433.31 382.76 417.73
  Q 386.91 413.86 395.88 408.67
  Q 434.09 386.56 454.30 374.83
  Q 462.51 370.06 611.69 284.17
  C 628.70 274.38 649.63 273.64 666.97 283.06
  Q 677.01 288.51 703.36 304.18
  C 707.04 306.37 709.55 307.41 709.02 311.50
  Z"
/>
</svg>
